<?xml version="1.0" standalone="no"?>
<!DOCTYPE svg PUBLIC "-//W3C//DTD SVG 20010904//EN"
 "http://www.w3.org/TR/2001/REC-SVG-20010904/DTD/svg10.dtd">
<svg version="1.0" xmlns="http://www.w3.org/2000/svg"
 width="512.000000pt" height="512.000000pt" viewBox="0 0 512.000000 512.000000"
 preserveAspectRatio="xMidYMid meet">

<g transform="translate(0.000000,512.000000) scale(0.100000,-0.100000)"
fill="#000000" stroke="none">
<path d="M1226 5104 c-185 -45 -337 -190 -403 -384 -17 -53 -18 -146 -21
-2215 -2 -1494 1 -2181 8 -2229 19 -124 68 -203 155 -249 30 -16 58 -21 110
-21 138 0 104 -29 833 698 l652 651 653 -651 c728 -727 694 -698 832 -698 145
0 238 95 265 270 7 48 10 735 8 2229 -3 2069 -4 2162 -21 2215 -66 197 -218
340 -408 385 -93 22 -2572 21 -2663 -1z"/>
</g>
</svg>
