<?xml version="1.0" standalone="no"?>
<!DOCTYPE svg PUBLIC "-//W3C//DTD SVG 20010904//EN"
 "http://www.w3.org/TR/2001/REC-SVG-20010904/DTD/svg10.dtd">
<svg version="1.0" xmlns="http://www.w3.org/2000/svg"
 width="512.000000pt" height="512.000000pt" viewBox="0 0 512.000000 512.000000"
 preserveAspectRatio="xMidYMid meet">

<g transform="translate(0.000000,512.000000) scale(0.100000,-0.100000)"
fill="#000000" stroke="none">
<path d="M290 4651 c-69 -22 -102 -42 -163 -100 -55 -52 -99 -132 -116 -209
-8 -38 -11 -446 -11 -1425 0 -1484 -1 -1440 54 -1537 32 -56 99 -125 151 -156
95 -55 72 -54 968 -54 l827 0 0 -140 0 -140 -262 0 -263 -1 -90 -206 c-49
-114 -91 -213 -93 -220 -3 -11 229 -13 1268 -13 1039 0 1271 2 1268 13 -2 7
-43 106 -93 220 l-90 206 -262 1 -263 0 0 140 0 140 828 0 c895 0 872 -1 967
54 52 31 119 100 151 156 55 97 54 53 54 1537 0 979 -3 1387 -11 1425 -32 148
-144 269 -291 313 -46 13 -297 15 -2262 14 -2083 0 -2214 -1 -2266 -18z m4451
-350 l24 -19 0 -1360 c0 -1323 -1 -1360 -19 -1381 l-19 -21 -2167 0 -2167 0
-19 21 c-18 21 -19 58 -19 1381 l0 1360 24 19 c23 19 71 19 2181 19 2110 0
2158 0 2181 -19z"/>
<path d="M2415 4009 c-428 -58 -790 -370 -910 -784 -208 -717 356 -1435 1100
-1402 324 15 628 171 818 420 203 264 277 582 212 902 -40 195 -154 404 -300
550 -146 146 -356 261 -549 300 -99 20 -279 27 -371 14z m68 -610 c53 -28 551
-396 566 -418 20 -32 20 -91 -1 -123 -13 -20 -349 -271 -545 -406 -20 -14 -46
-22 -73 -22 -34 0 -48 6 -76 34 l-34 34 0 420 c0 413 0 420 21 446 35 44 96
59 142 35z"/>
</g>
</svg>
