<?xml version="1.0" standalone="no"?>
<!DOCTYPE svg PUBLIC "-//W3C//DTD SVG 20010904//EN"
 "http://www.w3.org/TR/2001/REC-SVG-20010904/DTD/svg10.dtd">
<svg version="1.0" xmlns="http://www.w3.org/2000/svg"
 width="512.000000pt" height="512.000000pt" viewBox="0 0 512.000000 512.000000"
 preserveAspectRatio="xMidYMid meet">

<g transform="translate(0.000000,512.000000) scale(0.100000,-0.100000)"
fill="#000000" stroke="none">
<path d="M1530 5102 c-19 -9 -45 -33 -58 -52 -32 -48 -28 -137 9 -176 32 -34
71 -54 108 -54 28 0 46 -26 360 -510 182 -280 334 -516 337 -524 4 -10 -8 -22
-37 -36 -91 -47 -169 -142 -187 -227 l-8 -38 -384 -5 c-358 -5 -391 -7 -467
-28 -186 -51 -332 -133 -470 -265 -181 -174 -286 -393 -313 -655 -8 -72 -10
-320 -7 -752 4 -704 3 -686 66 -859 107 -294 358 -535 655 -631 l66 -22 0 -86
c0 -128 21 -182 70 -182 20 0 103 85 157 162 l55 78 1078 0 1078 0 55 -77 c54
-78 137 -163 157 -163 49 0 70 54 70 182 l0 86 66 22 c297 96 548 337 655 631
63 173 62 155 66 859 3 432 1 680 -7 752 -27 262 -132 481 -313 655 -138 132
-284 214 -470 265 -76 21 -109 23 -467 28 l-384 5 -8 38 c-18 85 -96 180 -187
226 -22 12 -41 25 -41 29 0 4 80 131 178 282 l178 275 40 5 c116 16 178 129
126 229 -55 109 -219 106 -272 -4 -23 -47 -25 -72 -9 -124 l11 -37 -190 -293
-190 -293 -142 0 -141 0 -346 531 -345 532 12 44 c15 53 6 96 -28 137 -48 56
-118 72 -182 40z m2031 -2267 c23 -16 53 -50 66 -74 l23 -44 0 -855 c0 -849 0
-856 -21 -899 -13 -27 -39 -56 -67 -76 l-47 -32 -1216 -3 -1216 -2 -54 28
c-43 22 -59 38 -81 81 l-28 53 0 848 0 848 28 53 c22 43 38 59 81 81 l54 28
1218 -2 1217 -3 43 -30z m661 -230 c23 -17 56 -51 73 -75 27 -41 30 -52 30
-126 0 -72 -3 -86 -30 -129 -19 -31 -49 -61 -80 -80 -43 -27 -57 -30 -124 -30
-84 1 -118 14 -171 67 -119 118 -79 325 75 395 19 8 58 12 107 11 67 -3 82 -7
120 -33z m-47 -919 c60 -25 104 -66 131 -122 62 -127 0 -284 -131 -334 -42
-16 -134 -15 -175 2 -146 61 -197 252 -101 374 65 82 186 117 276 80z"/>
</g>
</svg>
